# xmcd
#
# Track frame offsets:
#  150
#  12876
#  25115
#  36748
#  46479
#  57291
#  67065
#  84537
#  96964
#  108215
#
# Disc length: 1585 seconds
#
# Revision: 0
# Processed by: cddbd v1.5.1PL0 Copyright (c) Steve Scherf et al.
# Submitted via: Collectorz.com_Music_Collector 6.9
#
DISCID=83062f0a
DTITLE=Snow, Hank - I Went to Your Wedding
DYEAR=1900
DGENRE=
TTITLE0=Singing The Blues
TTITLE1=I Went to Your Wedding
TTITLE2=Born to Lose
TTITLE3=Loose Talk
TTITLE4=These Tears Are Not For You
TTITLE5=Poison Love
TTITLE6=Wedding bells
TTITLE7=Call of The Wild
TTITLE8=Marriage and Divorce
TTITLE9=Never No Mo' Blues
EXTD=
EXTT0=
EXTT1=
EXTT2=
EXTT3=
EXTT4=
EXTT5=
EXTT6=
EXTT7=
EXTT8=
EXTT9=
PLAYORDER=
